<?xml version="1.0" encoding="UTF-8" standalone="no"?>
<svg
   xmlns:dc="http://purl.org/dc/elements/1.1/"
   xmlns:cc="http://creativecommons.org/ns#"
   xmlns:rdf="http://www.w3.org/1999/02/22-rdf-syntax-ns#"
   xmlns:svg="http://www.w3.org/2000/svg"
   xmlns="http://www.w3.org/2000/svg"
   xmlns:xlink="http://www.w3.org/1999/xlink"
   id="svg7"
   xml:space="preserve"
   viewBox="0 0 1024 1024"
   y="0px"
   x="0px"
   version="1.1"><metadata
     id="metadata13"><rdf:RDF><cc:Work
         rdf:about=""><dc:format>image/svg+xml</dc:format><dc:type
           rdf:resource="http://purl.org/dc/dcmitype/StillImage" /></cc:Work></rdf:RDF></metadata><defs
     id="defs11" /><g
     id="g3"
     transform="matrix(1.5,0,0,1.5,512,512)"><path
       style="fill:#eb8d23"
       d="m 152.4,-201.9 c 46.6,26 86.9,68.5 97.2,116.9 10.4,48.3 -9.3,102.5 -32.2,150.3 -22.9,47.8 -49,89.1 -85.8,121.8 -36.8,32.8 -84.2,56.8 -135.5,62.2 -51.4,5.4 -106.6,-7.9 -148.6,-38.9 -42,-31 -70.8,-79.8 -87.5,-132.2 -16.8,-52.4 -21.5,-108.6 -2.2,-153.4 19.4,-44.8 62.9,-78.2 107.3,-105 44.4,-26.7 89.6,-46.8 138.7,-52 49.1,-5.3 102,4.2 148.6,30.3 z"
       id="path" /></g><animate
     fill="freeze"
     values="M206.8,-73.4C230.5,5.5,186.1,100.2,115.9,148.7C45.7,197.1,-50.4,199.3,-120.9,151.5C-191.4,103.8,-236.5,6.2,-212.1,-73.7C-187.7,-153.6,-93.8,-215.8,-1.1,-215.5C91.6,-215.1,183.2,-152.2,206.8,-73.4Z;    M182.4,-49.1C211.4,30,192.7,134.7,130.2,180.4C67.8,226,-38.4,212.5,-103.7,160.8C-169,109.1,-193.4,19.2,-169.3,-53.2C-145.2,-125.5,-72.6,-180.3,2.1,-180.9C76.7,-181.6,153.4,-128.2,182.4,-49.1Z;       M206.5,-62.1C234.2,18.2,200.3,123.6,127.4,176.9C54.5,230.3,-57.4,231.6,-130,178.9C-202.6,126.2,-235.9,19.4,-207.6,-61.6C-179.4,-142.6,-89.7,-197.8,-0.2,-197.8C89.4,-197.7,178.8,-142.4,206.5,-62.1Z;    M182.7,-58.2C208.7,20.8,182.5,118,115.8,168.8C49,219.5,-58.4,223.8,-119.6,176.5C-180.9,129.2,-196,30.3,-168.4,-50.9C-140.8,-132.1,-70.4,-195.5,4,-196.8C78.3,-198.1,156.6,-137.2,182.7,-58.2Z;    M205.7,-67.2C231.4,12.1,192.7,112.1,125.9,156.6C59.2,201.2,-35.7,190.4,-103.3,141.4C-171,92.4,-211.5,5.3,-189.8,-68.7C-168,-142.6,-84,-203.3,3,-204.3C90,-205.3,180.1,-146.5,205.7,-67.2Z;      M206.8,-73.4C230.5,5.5,186.1,100.2,115.9,148.7C45.7,197.1,-50.4,199.3,-120.9,151.5C-191.4,103.8,-236.5,6.2,-212.1,-73.7C-187.7,-153.6,-93.8,-215.8,-1.1,-215.5C91.6,-215.1,183.2,-152.2,206.8,-73.4Z"
     keySplines="0.9 0.1 0.1 0.9;0.9 0.1 0.1 0.9;0.9 0.1 0.1 0.9;0.9 0.1 0.1 0.9;0.9 0.1 0.1 0.9"
     calcMode="spline"
     keyTimes="0; 0.2; 0.4; 0.6; 0.8; 1"
     attributeName="d"
     repeatCount="indefinite"
     dur="20s"
     attributeType="XML"
     xlink:href="#path" /><path
     id="path5"
     transform="translate(153.6 243.2) scale(0.7)"
     fill="#28313a"
     d="m522.11 221.46c-0.02-0.01-0.27 0.12-0.56 0.31s-1.02 0.67-1.61 1.08c-0.6 0.41-1.69 1.18-2.43 1.72-0.74 0.53-1.6 1.17-1.9 1.42-0.31 0.25-0.89 0.73-1.29 1.07-0.4 0.35-1.09 0.95-1.52 1.34-0.44 0.39-1.22 1.1-1.74 1.59-0.53 0.48-1.52 1.42-2.21 2.08s-2.02 1.95-2.96 2.88c-0.95 0.92-2.37 2.34-3.16 3.15s-1.9 1.99-2.47 2.61c-0.57 0.61-1.45 1.58-1.94 2.15-0.5 0.56-1.31 1.51-1.81 2.1-0.5 0.6-1.29 1.57-1.76 2.16s-1.25 1.58-1.72 2.2-1.22 1.64-1.67 2.26-1.24 1.75-1.74 2.51c-0.51 0.76-1.2 1.84-1.54 2.41-0.34 0.58-0.83 1.43-1.1 1.9-0.26 0.47-0.83 1.59-1.27 2.48-0.45 0.89-1.05 2.17-1.35 2.84s-0.79 1.86-1.1 2.63c-0.31 0.78-0.77 1.96-1.01 2.63s-0.64 1.83-0.89 2.58c-0.25 0.74-0.62 1.9-0.82 2.56-0.2 0.67-0.49 1.67-0.64 2.21-0.15 0.55-0.42 1.54-0.58 2.2-0.17 0.67-0.4 1.67-0.52 2.22-0.12 0.56-0.28 1.4-0.37 1.87s-0.23 1.32-0.31 1.88c-0.09 0.56-0.21 1.49-0.27 2.05-0.07 0.56-0.17 1.52-0.22 2.12-0.05 0.61-0.12 1.82-0.16 2.7-0.04 0.93-0.05 2.31-0.03 3.35 0.02 0.97 0.07 2.17 0.1 2.66s0.1 1.36 0.16 1.93c0.05 0.58 0.14 1.47 0.21 1.99s0.22 1.54 0.33 2.26c0.12 0.73 0.32 1.84 0.44 2.48s0.58 3.02 1.03 5.29 0.93 4.76 1.07 5.54c0.13 0.77 0.52 3.22 0.85 5.44 0.34 2.22 0.65 4.37 0.7 4.77s0.13 1.01 0.16 1.35c0.03 0.33 0.09 1.03 0.13 1.55 0.04 0.69 0.05 1.56 0 3.09-0.04 1.18-0.1 2.91-0.13 3.86-0.03 0.94-0.1 2.04-0.15 2.44-0.05 0.41-0.15 0.99-0.22 1.29-0.06 0.3-0.19 0.78-0.28 1.07-0.1 0.28-0.41 0.99-0.7 1.56s-0.75 1.42-1.03 1.89-0.68 1.12-0.89 1.44c-0.2 0.32-0.59 0.84-0.85 1.15s-0.72 0.77-1.01 1.03c-0.29 0.25-0.77 0.63-1.07 0.85-0.31 0.21-0.93 0.58-1.38 0.81-0.46 0.24-1.1 0.54-1.44 0.67-0.33 0.14-0.84 0.32-1.12 0.41s-0.95 0.27-1.49 0.4c-0.53 0.14-1.3 0.31-1.69 0.38-0.5 0.09-1.08 0.13-1.94 0.15-0.93 0.03-1.39 0.01-1.94-0.07-0.4-0.05-0.98-0.16-1.29-0.24s-0.81-0.24-1.11-0.35-0.85-0.35-1.22-0.54-0.91-0.49-1.19-0.68c-0.29-0.19-0.81-0.57-1.17-0.85-0.35-0.28-1.05-0.93-1.56-1.44-0.5-0.5-1.16-1.23-1.46-1.62s-0.74-1.01-0.98-1.38-0.61-0.97-0.81-1.34-0.5-0.98-0.68-1.35c-0.17-0.38-0.44-1.05-0.61-1.5s-0.46-1.34-0.65-1.98c-0.18-0.64-0.48-1.73-0.65-2.42s-0.43-1.86-0.58-2.6c-0.14-0.74-0.35-1.85-0.45-2.47-0.1-0.63-0.25-1.67-0.34-2.33-0.08-0.65-0.19-1.64-0.24-2.2-0.05-0.55-0.13-1.52-0.17-2.14-0.04-0.67-0.05-1.68-0.03-2.48 0.02-0.74 0.09-1.81 0.16-2.38s0.18-1.36 0.25-1.74c0.07-0.39 0.21-1.04 0.31-1.44s0.29-1.07 0.43-1.48c0.13-0.42 0.34-0.99 0.45-1.28 0.12-0.28 0.21-0.54 0.21-0.55 0-0.02-0.33 0.27-0.75 0.65-0.41 0.38-1.2 1.13-1.76 1.67-0.56 0.53-1.53 1.51-2.15 2.17s-1.46 1.58-1.86 2.03c-0.4 0.46-1.02 1.19-1.37 1.62-0.36 0.44-0.94 1.18-1.3 1.64-0.36 0.47-0.95 1.27-1.32 1.78-0.36 0.51-1.01 1.44-1.43 2.08-0.41 0.64-1.02 1.61-1.34 2.14-0.32 0.54-0.84 1.44-1.15 1.99-0.31 0.56-0.86 1.62-1.22 2.36-0.37 0.74-0.85 1.76-1.07 2.26-0.23 0.5-0.55 1.26-0.72 1.68s-0.48 1.24-0.69 1.82c-0.22 0.59-0.56 1.6-0.76 2.27-0.2 0.66-0.48 1.64-0.62 2.18-0.13 0.54-0.34 1.46-0.46 2.05-0.12 0.58-0.33 1.92-0.48 2.96-0.15 1.05-0.34 2.49-0.43 3.22-0.08 0.72-0.21 1.86-0.27 2.53-0.07 0.68-0.17 1.75-0.22 2.39s-0.12 1.82-0.16 2.63c-0.04 0.89-0.06 2.35-0.04 3.73 0.02 1.24 0.08 2.85 0.14 3.58 0.05 0.72 0.15 1.82 0.22 2.44 0.06 0.62 0.19 1.6 0.27 2.17 0.09 0.58 0.22 1.43 0.31 1.9 0.08 0.47 0.26 1.36 0.4 1.98 0.13 0.62 0.38 1.61 0.54 2.2 0.16 0.6 0.42 1.48 0.57 1.97 0.15 0.48 0.43 1.31 0.61 1.83 0.19 0.52 0.48 1.31 0.65 1.76s0.48 1.22 0.68 1.71c0.21 0.5 0.57 1.33 0.81 1.85 0.23 0.52 0.75 1.61 1.15 2.42 0.39 0.8 0.99 1.96 1.31 2.57 0.33 0.6 0.83 1.5 1.12 1.98 0.28 0.49 0.83 1.36 1.21 1.93 0.37 0.57 0.98 1.44 1.34 1.93 0.36 0.48 0.93 1.21 1.25 1.62 0.33 0.4 0.91 1.09 1.29 1.53 0.38 0.43 1.33 1.43 2.1 2.2 0.78 0.78 1.8 1.76 2.27 2.17 0.48 0.42 1.22 1.06 1.66 1.42s1.37 1.08 2.06 1.6 1.95 1.41 2.81 1.98c0.85 0.57 1.83 1.19 2.18 1.39 0.35 0.19 0.88 0.47 1.19 0.61s0.87 0.37 1.24 0.51c0.38 0.14 1.01 0.34 1.41 0.44s1.04 0.22 1.42 0.28c0.5 0.08 1.08 0.11 1.93 0.11s1.44-0.03 1.95-0.11c0.4-0.06 1.06-0.17 1.47-0.25 0.41-0.09 1.11-0.25 1.55-0.37 0.45-0.12 1.22-0.35 1.7-0.52 0.49-0.17 1.25-0.46 1.69-0.65 0.44-0.18 1.14-0.5 1.54-0.7 0.41-0.21 1.03-0.54 1.39-0.74 0.35-0.2 1.11-0.68 1.68-1.06 0.57-0.37 1.42-0.97 1.89-1.33 0.47-0.35 1.21-0.94 1.64-1.3s1.11-0.94 1.5-1.3c0.39-0.35 1.25-1.18 1.91-1.84s1.57-1.61 2.02-2.12c0.45-0.5 1.24-1.39 1.74-1.98s1.3-1.55 1.78-2.14c0.47-0.59 1.23-1.57 1.69-2.18 0.45-0.6 1.16-1.58 1.58-2.18s1.09-1.6 1.5-2.23 1.03-1.62 1.38-2.19c0.36-0.57 0.88-1.44 1.16-1.93 0.29-0.48 0.81-1.39 1.15-2.01 0.35-0.63 1.02-1.91 1.5-2.85 0.47-0.94 1.04-2.14 1.25-2.66 0.22-0.52 0.53-1.3 0.69-1.74 0.17-0.44 0.47-1.29 0.67-1.89s0.51-1.61 0.7-2.26c0.19-0.64 0.52-1.89 0.73-2.76 0.21-0.88 0.5-2.14 0.64-2.82 0.14-0.67 0.34-1.74 0.46-2.38 0.11-0.64 0.31-1.8 0.42-2.57 0.12-0.77 0.3-2.05 0.4-2.84s0.26-2.28 0.37-3.31c0.1-1.02 0.22-2.4 0.27-3.05 0.05-0.66 0.14-1.87 0.19-2.69 0.05-0.83 0.13-2.45 0.18-3.61s0.11-3.19 0.13-4.5c0.02-1.39 0.01-3.23-0.03-4.43-0.04-1.13-0.09-2.48-0.13-3-0.03-0.52-0.12-1.5-0.18-2.17-0.07-0.67-0.18-1.61-0.25-2.08s-0.19-1.23-0.28-1.68c-0.08-0.46-0.25-1.21-0.37-1.68s-0.33-1.2-0.48-1.62c-0.14-0.42-0.36-0.98-0.48-1.24s-0.2-0.48-0.19-0.48 0.58 0.59 1.26 1.3c0.69 0.72 1.72 1.81 2.29 2.44 0.57 0.62 1.41 1.56 1.87 2.08 0.45 0.52 1.17 1.34 1.58 1.83 0.42 0.49 1.35 1.63 2.08 2.54 0.72 0.91 1.72 2.18 2.21 2.84s1.22 1.65 1.61 2.2c0.4 0.56 1.15 1.66 1.68 2.45s1.27 1.92 1.64 2.51 0.93 1.51 1.25 2.05c0.32 0.53 0.83 1.41 1.14 1.95 0.3 0.54 0.82 1.49 1.15 2.11s0.79 1.53 1.02 2.02 0.62 1.36 0.87 1.93c0.24 0.57 0.65 1.6 0.91 2.29 0.25 0.69 0.6 1.72 0.77 2.29 0.17 0.58 0.44 1.51 0.58 2.08 0.15 0.58 0.37 1.51 0.48 2.08 0.12 0.57 0.29 1.47 0.37 1.99 0.09 0.52 0.21 1.42 0.28 1.99s0.16 1.46 0.2 1.98c0.05 0.6 0.08 1.98 0.08 3.73 0 1.76-0.03 3.15-0.08 3.77-0.04 0.53-0.13 1.47-0.2 2.08-0.07 0.6-0.22 1.73-0.34 2.5-0.12 0.78-0.32 1.96-0.45 2.63-0.14 0.68-0.37 1.69-0.52 2.27-0.15 0.57-0.42 1.53-0.61 2.14-0.18 0.6-0.5 1.55-0.69 2.11-0.2 0.55-0.52 1.39-0.7 1.86-0.19 0.47-0.65 1.57-1.03 2.44-0.37 0.87-1.03 2.36-1.46 3.3-0.43 0.95-1.2 2.62-1.72 3.71s-1.76 3.62-2.76 5.61c-1 2-2.49 5.07-3.3 6.82-0.81 1.76-1.62 3.57-1.81 4.02-0.18 0.46-0.4 1.06-0.48 1.33-0.08 0.28-0.21 0.9-0.3 1.38-0.08 0.48-0.21 1.3-0.28 1.82-0.09 0.66-0.12 1.16-0.11 1.68 0.02 0.66 0.04 0.77 0.19 1.08 0.13 0.27 0.32 0.48 0.77 0.88 0.33 0.29 0.81 0.71 1.09 0.92 0.27 0.22 0.67 0.47 0.89 0.57 0.21 0.1 0.55 0.23 0.75 0.28 0.24 0.07 0.71 0.12 1.32 0.14 0.6 0.02 1.41-0.01 2.23-0.08 0.7-0.05 1.68-0.14 2.17-0.18 0.49-0.05 1.23-0.14 1.65-0.19s1.33-0.19 2.01-0.31c0.69-0.11 1.75-0.32 2.36-0.46 0.61-0.13 1.37-0.31 1.69-0.39s1.56-0.49 2.75-0.92c1.19-0.42 2.5-0.89 2.9-1.04 0.41-0.14 1.48-0.53 2.39-0.87 0.91-0.33 2.31-0.86 3.12-1.17 0.8-0.31 2.07-0.81 2.81-1.11 0.74-0.29 1.7-0.68 2.14-0.87 0.44-0.18 1.24-0.53 1.77-0.77 0.54-0.25 1.64-0.77 2.45-1.16 0.81-0.4 2.2-1.1 3.09-1.56 0.89-0.47 2.35-1.25 3.24-1.74 0.89-0.48 2.32-1.28 3.18-1.77s2.17-1.26 2.91-1.71c0.74-0.46 1.95-1.23 2.69-1.73 0.74-0.49 1.7-1.15 2.14-1.46 0.43-0.32 1.24-0.92 1.78-1.34 0.55-0.41 1.36-1.06 1.81-1.43s1.17-1 1.6-1.39c0.44-0.39 1.28-1.19 1.87-1.78s1.4-1.44 1.81-1.89c0.4-0.46 1.06-1.23 1.47-1.72 0.4-0.48 1-1.22 1.32-1.64 0.33-0.42 0.87-1.14 1.21-1.61 0.34-0.46 0.94-1.32 1.34-1.9s1.08-1.6 1.5-2.27c0.43-0.67 1.11-1.76 1.5-2.42 0.4-0.66 0.98-1.65 1.29-2.21 0.31-0.55 0.93-1.72 1.37-2.59 0.44-0.88 1.04-2.14 1.34-2.82 0.3-0.67 0.77-1.78 1.05-2.47 0.27-0.69 0.7-1.81 0.94-2.48s0.59-1.7 0.77-2.29c0.19-0.59 0.49-1.6 0.68-2.24 0.18-0.63 0.52-1.93 0.76-2.87 0.23-0.94 0.56-2.4 0.73-3.24 0.16-0.84 0.41-2.21 0.55-3.03 0.13-0.82 0.31-2.03 0.4-2.68 0.08-0.65 0.21-1.72 0.27-2.38 0.07-0.67 0.17-1.79 0.22-2.49 0.05-0.71 0.12-1.95 0.15-2.75 0.03-0.81 0.06-2.19 0.06-3.06 0-0.88-0.03-2.25-0.06-3.06s-0.1-2.06-0.15-2.78c-0.06-0.73-0.17-1.97-0.25-2.76s-0.25-2.09-0.36-2.9c-0.12-0.81-0.33-2.1-0.46-2.87-0.14-0.78-0.35-1.85-0.46-2.39s-0.35-1.59-0.52-2.33c-0.18-0.73-0.49-1.97-0.7-2.75-0.22-0.77-0.57-1.99-0.79-2.72-0.22-0.72-0.58-1.84-0.79-2.47-0.22-0.64-0.61-1.74-0.87-2.45s-0.69-1.82-0.95-2.48c-0.26-0.65-0.65-1.59-0.85-2.08-0.21-0.48-0.62-1.41-0.9-2.05-0.29-0.63-1.04-2.2-1.67-3.48-0.64-1.28-1.47-2.91-1.86-3.62-0.38-0.71-0.99-1.81-1.36-2.44-0.36-0.64-1.01-1.75-1.45-2.47-0.44-0.73-1.16-1.9-1.62-2.6-0.45-0.71-1.14-1.75-1.53-2.33-0.39-0.57-1.12-1.61-1.62-2.32-0.51-0.71-1.3-1.79-1.77-2.42-0.48-0.62-1.29-1.66-1.81-2.32-0.53-0.66-1.24-1.54-1.59-1.96-0.36-0.42-1-1.17-1.44-1.68-0.44-0.5-1.06-1.21-1.37-1.56-0.32-0.35-1.15-1.24-1.85-1.98s-1.94-2.01-2.76-2.82-1.91-1.87-2.44-2.36c-0.52-0.48-1.51-1.38-2.2-1.99s-1.66-1.46-2.17-1.89c-0.5-0.43-1.64-1.36-2.54-2.07-0.89-0.72-2.18-1.73-2.87-2.25s-1.87-1.39-2.63-1.93-1.9-1.34-2.54-1.78c-0.64-0.43-1.17-0.78-1.18-0.78-0.01 0.01 0.17 0.39 0.38 0.84 0.22 0.46 0.56 1.22 0.77 1.71 0.21 0.48 0.49 1.16 0.62 1.49 0.14 0.34 0.46 1.16 0.71 1.84 0.25 0.67 0.73 2.03 1.06 3.02 0.33 1 0.81 2.48 1.06 3.31s0.71 2.41 1.02 3.52 0.86 3.19 1.22 4.64 0.81 3.35 1 4.23 0.46 2.27 0.61 3.09 0.36 2.09 0.46 2.83c0.11 0.74 0.23 1.75 0.28 2.24 0.05 0.48 0.12 1.39 0.16 2.02 0.04 0.66 0.06 1.73 0.04 2.59-0.02 0.81-0.08 1.82-0.13 2.24-0.05 0.43-0.16 1.1-0.25 1.51-0.08 0.4-0.24 0.99-0.34 1.3-0.11 0.32-0.32 0.86-0.49 1.19-0.16 0.34-0.46 0.84-0.65 1.11-0.2 0.26-0.56 0.66-0.79 0.88-0.24 0.22-0.65 0.52-0.91 0.67s-0.69 0.34-0.94 0.43c-0.26 0.1-0.73 0.21-1.04 0.27-0.33 0.05-0.92 0.1-1.35 0.1-0.51 0-1.01-0.05-1.45-0.12-0.37-0.07-1.06-0.22-1.54-0.34-0.49-0.13-1.36-0.39-1.94-0.59-0.59-0.2-1.48-0.54-1.99-0.76s-1.42-0.65-2.03-0.95-1.5-0.75-1.97-1.01-1.19-0.67-1.6-0.92-1.03-0.63-1.38-0.86c-0.35-0.22-0.86-0.57-1.15-0.77-0.28-0.21-0.72-0.52-0.98-0.71-0.25-0.19-0.8-0.61-1.22-0.95s-0.99-0.81-1.25-1.04c-0.27-0.23-0.89-0.8-1.37-1.25s-1.24-1.23-1.69-1.72-1.07-1.19-1.38-1.56-0.89-1.11-1.3-1.65c-0.4-0.54-1.01-1.41-1.36-1.93-0.34-0.52-0.86-1.35-1.14-1.83-0.29-0.49-0.73-1.29-0.98-1.78-0.26-0.48-0.68-1.34-0.93-1.91-0.26-0.57-0.64-1.48-0.86-2.03s-0.58-1.53-0.8-2.18-0.52-1.61-0.68-2.13c-0.15-0.52-0.41-1.49-0.57-2.14-0.17-0.66-0.41-1.74-0.55-2.41-0.13-0.66-0.33-1.69-0.43-2.29-0.1-0.59-0.25-1.59-0.33-2.21-0.09-0.63-0.21-1.67-0.28-2.33-0.06-0.65-0.16-1.74-0.21-2.41-0.05-0.68-0.12-1.93-0.16-2.79-0.05-0.97-0.06-2.65-0.04-4.46 0.02-1.66 0.07-3.49 0.13-4.28 0.05-0.76 0.15-1.97 0.22-2.69 0.07-0.73 0.19-1.88 0.27-2.57 0.09-0.69 0.23-1.75 0.31-2.36 0.09-0.6 0.28-1.84 0.43-2.75 0.16-0.91 0.42-2.35 0.59-3.21 0.16-0.86 0.45-2.23 0.63-3.06 0.18-0.82 0.48-2.14 0.67-2.93s0.5-2.02 0.69-2.72c0.18-0.71 0.51-1.93 0.73-2.72s0.58-2.04 0.8-2.79c0.21-0.74 0.61-2.04 0.88-2.9s0.75-2.35 1.07-3.32 0.57-1.78 0.56-1.79zm122.83 239.87c-3.28 0-5.94 1.02-7.97 3.05-1.95 2.03-2.93 4.53-2.93 7.5s0.98 5.47 2.93 7.5c2.03 2.03 4.69 3.05 7.97 3.05 3.29 0 5.9-1.02 7.86-3.05 2.03-2.03 3.04-4.53 3.04-7.5s-1.01-5.47-3.04-7.5c-1.96-2.03-4.57-3.05-7.86-3.05zm-34.08 3.75c-3.6 0-6.99 0.43-10.2 1.29-3.12 0.86-5.86 2.23-8.2 4.1-2.35 1.8-4.22 4.14-5.63 7.04-1.33 2.81-1.99 6.21-1.99 10.19v48.53c0 1.95 0.23 3.55 0.7 4.8 0.55 1.18 1.29 2.11 2.23 2.82 0.94 0.7 2.07 1.17 3.4 1.4 1.4 0.24 2.97 0.36 4.69 0.36 1.79 0 3.51-0.12 5.15-0.36 1.72-0.23 2.97-0.46 3.76-0.7v-37.16h13.47c2.04 0 3.64-0.58 4.81-1.75 1.25-1.25 1.88-3.25 1.88-5.98 0-1.56-0.24-2.97-0.71-4.22-0.39-1.33-0.82-2.42-1.29-3.28h-19.22v-3.75c0-2.82 0.94-4.77 2.81-5.87 1.88-1.17 4.5-1.75 7.86-1.75 2.11 0 3.94 0.15 5.5 0.47 1.65 0.23 3.21 0.54 4.69 0.93 0.79-0.62 1.49-1.56 2.11-2.81 0.71-1.25 1.06-2.66 1.06-4.22 0-3.67-1.37-6.25-4.1-7.73-2.74-1.57-7-2.35-12.78-2.35zm-219.26 2.11c-1.72 0-3.43 0.16-5.15 0.47-1.64 0.23-2.9 0.47-3.75 0.7v67.87c0 1.95 0.23 3.55 0.7 4.8 0.55 1.18 1.29 2.11 2.23 2.82 0.93 0.7 2.07 1.17 3.4 1.4 1.4 0.24 2.96 0.36 4.68 0.36s3.4-0.16 5.04-0.47c1.72-0.24 3.01-0.43 3.87-0.59v-21.33l11.61 14.53c2.26 2.89 4.37 4.96 6.32 6.21 1.96 1.18 4.19 1.76 6.69 1.76 3.36 0 5.9-0.97 7.62-2.93 1.79-1.95 2.89-4.76 3.28-8.44l-18.76-18.75 6.8-5.86c1.72-1.49 3.2-2.77 4.45-3.87 1.33-1.17 2.39-2.27 3.17-3.28 0.86-1.02 1.49-1.99 1.88-2.93 0.39-1.02 0.58-2.11 0.58-3.28 0-2.74-1.25-5-3.75-6.8-2.42-1.8-5.67-2.7-9.73-2.7l-20.16 20.63v-30.94c0-1.96-0.27-3.52-0.82-4.69-0.47-1.25-1.17-2.23-2.11-2.93s-2.11-1.17-3.51-1.41c-1.33-0.23-2.86-0.35-4.58-0.35zm-128.22 6.1c-2.18 0-3.98 0.66-5.39 1.99-1.33 1.33-1.99 3.51-1.99 6.56 0 1.64 0.23 3.21 0.7 4.69 0.47 1.49 0.98 2.66 1.53 3.52h17.58v45.48c0 2.03 0.23 3.67 0.7 4.92s1.17 2.23 2.11 2.93 2.07 1.17 3.4 1.41c1.41 0.31 3.01 0.46 4.81 0.46 1.79 0 3.59-0.11 5.39-0.35 1.87-0.23 3.24-0.47 4.1-0.7v-54.15h13.01c2.19 0 3.95-0.67 5.28-2 1.4-1.32 2.1-3.51 2.1-6.56 0-1.64-0.23-3.2-0.7-4.69-0.47-1.48-0.97-2.66-1.52-3.51h-51.11zm81.59 12.66c-3.67 0-7.26 0.58-10.78 1.75-3.51 1.1-6.64 2.85-9.38 5.28-2.73 2.34-4.96 5.39-6.68 9.14-1.64 3.67-2.46 8.09-2.46 13.25 0 5.23 0.82 9.8 2.46 13.71 1.72 3.91 4.03 7.15 6.92 9.73 2.97 2.58 6.41 4.53 10.31 5.86 3.99 1.25 8.29 1.87 12.9 1.87 2.73 0 5.66-0.23 8.79-0.7 3.12-0.47 5.94-1.37 8.44-2.7 3.28-1.71 4.92-4.33 4.92-7.85 0-1.56-0.43-3.05-1.29-4.45-0.86-1.41-1.91-2.5-3.16-3.29-1.8 1.1-4.15 2.07-7.04 2.93-2.81 0.79-5.82 1.18-9.02 1.18-3.44 0-6.49-0.63-9.15-1.88-2.65-1.33-4.41-3.28-5.27-5.86l28.95-4.34c2.66-0.39 4.73-1.28 6.21-2.69 1.49-1.41 2.23-3.44 2.23-6.1 0-3.59-0.7-6.91-2.11-9.96-1.33-3.05-3.24-5.67-5.74-7.85-2.42-2.19-5.36-3.91-8.79-5.16-3.36-1.25-7.11-1.87-11.26-1.87zm130.99 0c-4.92 0-9.42 0.58-13.48 1.75-3.98 1.18-7.31 2.7-9.96 4.57-1.57 1.1-2.82 2.31-3.75 3.64-0.86 1.33-1.29 3.04-1.29 5.15v35.17c0 1.95 0.23 3.55 0.7 4.8 0.55 1.18 1.29 2.11 2.23 2.82 0.94 0.7 2.07 1.17 3.4 1.4 1.4 0.24 2.97 0.36 4.68 0.36 1.8 0 3.52-0.12 5.16-0.36 1.72-0.23 2.97-0.46 3.75-0.7v-40.67c1.1-0.78 2.39-1.37 3.87-1.76 1.56-0.39 3.13-0.59 4.69-0.59 2.34 0 4.18 0.59 5.51 1.76 1.41 1.1 2.11 2.85 2.11 5.28v27.66c0 1.95 0.23 3.55 0.7 4.8 0.55 1.18 1.29 2.11 2.23 2.82 0.94 0.7 2.07 1.17 3.4 1.4 1.4 0.24 2.97 0.36 4.69 0.36 1.79 0 3.51-0.12 5.15-0.36 1.72-0.23 2.97-0.46 3.75-0.7v-36.69c0-6.87-2.38-12.23-7.15-16.06-4.76-3.9-11.56-5.85-20.39-5.85zm68.21 0c-4.61 0-8.79 0.7-12.54 2.1-3.75 1.41-6.99 3.44-9.73 6.1-2.65 2.58-4.72 5.74-6.21 9.49-1.48 3.76-2.23 7.94-2.23 12.55 0 4.68 0.75 8.9 2.23 12.65 1.49 3.75 3.56 6.96 6.21 9.62 2.74 2.57 5.98 4.57 9.73 5.97 3.75 1.41 7.93 2.11 12.54 2.11s8.8-0.66 12.55-1.99 6.95-3.28 9.61-5.86c2.73-2.58 4.84-5.74 6.33-9.49 1.48-3.83 2.22-8.17 2.22-13.01 0-4.54-0.74-8.68-2.22-12.43-1.49-3.75-3.6-6.91-6.33-9.49-2.66-2.66-5.86-4.69-9.61-6.1-3.75-1.48-7.94-2.22-12.55-2.22zm195.93 0c-3.67 0-7.26 0.58-10.78 1.75-3.52 1.1-6.64 2.85-9.38 5.28-2.73 2.34-4.96 5.39-6.68 9.14-1.64 3.67-2.46 8.09-2.46 13.25 0 5.23 0.82 9.8 2.46 13.71 1.72 3.91 4.03 7.15 6.92 9.73 2.97 2.58 6.41 4.53 10.31 5.86 3.99 1.25 8.28 1.87 12.89 1.87 2.74 0 5.67-0.23 8.8-0.7 3.12-0.47 5.93-1.37 8.44-2.7 3.28-1.71 4.92-4.33 4.92-7.85 0-1.56-0.43-3.05-1.29-4.45-0.86-1.41-1.92-2.5-3.17-3.29-1.79 1.1-4.14 2.07-7.03 2.93-2.81 0.79-5.82 1.18-9.02 1.18-3.44 0-6.49-0.63-9.15-1.88-2.65-1.33-4.41-3.28-5.27-5.86l28.95-4.34c2.66-0.39 4.73-1.28 6.21-2.69 1.49-1.41 2.23-3.44 2.23-6.1 0-3.59-0.7-6.91-2.11-9.96-1.33-3.05-3.24-5.67-5.74-7.85-2.43-2.19-5.36-3.91-8.79-5.16-3.36-1.25-7.12-1.87-11.26-1.87zm-44.84 0.11c-2.27 0-4.54 0.2-6.8 0.59-2.27 0.31-4.46 0.78-6.57 1.4-2.11 0.63-4.1 1.37-5.97 2.23-1.8 0.78-3.32 1.68-4.57 2.7-1.25 1.01-2.23 2.19-2.94 3.51-0.62 1.25-0.93 2.78-0.93 4.57v35.17c0 1.95 0.23 3.55 0.7 4.8 0.55 1.18 1.29 2.11 2.23 2.82 0.93 0.7 2.07 1.17 3.4 1.4 1.4 0.24 2.97 0.36 4.68 0.36 1.8 0 3.52-0.12 5.16-0.36 1.72-0.23 2.97-0.46 3.75-0.7v-39.97c1.02-0.47 2.23-0.86 3.64-1.17 1.48-0.39 3.04-0.74 4.68-1.06 1.65-0.31 3.33-0.54 5.05-0.7 1.71-0.16 3.39-0.23 5.03-0.23 0.47-0.86 0.86-1.8 1.18-2.82 0.31-1.09 0.47-2.18 0.47-3.28 0-3.28-1.1-5.62-3.29-7.03-2.18-1.49-5.15-2.23-8.9-2.23zm-51.37 1.41c-1.72 0-3.44 0.15-5.16 0.47-1.64 0.23-2.89 0.43-3.75 0.58v47.71c0 1.95 0.23 3.55 0.7 4.8 0.55 1.18 1.29 2.11 2.23 2.82 0.94 0.7 2.07 1.17 3.4 1.4 1.41 0.24 2.97 0.36 4.69 0.36s3.4-0.16 5.04-0.47c1.72-0.24 3.01-0.43 3.87-0.59v-47.7c0-1.96-0.28-3.52-0.82-4.69-0.47-1.25-1.18-2.23-2.11-2.93-0.94-0.71-2.11-1.18-3.52-1.41-1.33-0.23-2.85-0.35-4.57-0.35zm-298.92 13.01c2.9 0 5.08 0.78 6.57 2.34 1.48 1.57 2.34 3.13 2.58 4.69l-20.05 3.28c0.08-1.25 0.32-2.46 0.71-3.63 0.47-1.25 1.13-2.34 1.99-3.28 0.86-1.02 1.95-1.84 3.28-2.46 1.41-0.63 3.05-0.94 4.92-0.94zm395.13 0c2.89 0 5.08 0.78 6.57 2.34 1.48 1.57 2.34 3.13 2.58 4.69l-20.05 3.28c0.08-1.25 0.32-2.46 0.71-3.63 0.47-1.25 1.13-2.34 1.99-3.28 0.86-1.02 1.95-1.84 3.28-2.46 1.41-0.63 3.05-0.94 4.92-0.94zm-195.93 1.05c3.29 0 5.83 1.29 7.62 3.87 1.8 2.5 2.7 6.1 2.7 10.79 0 4.68-0.9 8.32-2.7 10.9-1.72 2.57-4.22 3.86-7.5 3.86s-5.86-1.25-7.73-3.75c-1.8-2.58-2.7-6.25-2.7-11.01 0-4.69 0.9-8.29 2.7-10.79 1.79-2.58 4.33-3.87 7.61-3.87z" /></svg>